<svg width="33" height="33" viewBox="0 0 33 33" fill="none" xmlns="http://www.w3.org/2000/svg">
<path fill-rule="evenodd" clip-rule="evenodd" d="M16.5 0.308594C7.66344 0.308594 0.5 7.47204 0.5 16.3086C0.5 25.1452 7.66344 32.3086 16.5 32.3086C25.3366 32.3086 32.5 25.1452 32.5 16.3086C32.5 7.47204 25.3366 0.308594 16.5 0.308594ZM12.9822 7.82682C13.8924 7.78539 14.1833 7.77526 16.5008 7.77526H16.4981C18.8164 7.77526 19.1062 7.78539 20.0164 7.82682C20.9248 7.86842 21.5453 8.01224 22.0893 8.22327C22.6511 8.44104 23.1258 8.7326 23.6004 9.20728C24.0751 9.68159 24.3667 10.1577 24.5853 10.7189C24.7951 11.2615 24.9391 11.8816 24.9818 12.7901C25.0227 13.7003 25.0333 13.9911 25.0333 16.3087C25.0333 18.6262 25.0227 18.9164 24.9818 19.8266C24.9391 20.7347 24.7951 21.355 24.5853 21.8977C24.3667 22.4588 24.0751 22.9349 23.6004 23.4092C23.1263 23.8839 22.6509 24.1761 22.0898 24.3941C21.5469 24.6051 20.9261 24.749 20.0176 24.7906C19.1074 24.832 18.8174 24.8421 16.4997 24.8421C14.1824 24.8421 13.8917 24.832 12.9815 24.7906C12.0732 24.749 11.4529 24.6051 10.91 24.3941C10.3491 24.1761 9.873 23.8839 9.39886 23.4092C8.92437 22.9349 8.63281 22.4588 8.41467 21.8975C8.20382 21.355 8.06 20.7349 8.01822 19.8264C7.97698 18.9162 7.96667 18.6262 7.96667 16.3087C7.96667 13.9911 7.97733 13.7001 8.01804 12.7899C8.05893 11.8818 8.20294 11.2615 8.41449 10.7188C8.63316 10.1577 8.92472 9.68159 9.39939 9.20728C9.87371 8.73278 10.3498 8.44122 10.9111 8.22327C11.4536 8.01224 12.0737 7.86842 12.9822 7.82682Z" fill="#0997D9"/>
<path fill-rule="evenodd" clip-rule="evenodd" d="M15.734 9.31268C15.8827 9.31245 16.0426 9.31252 16.2151 9.3126L16.4995 9.31268C18.778 9.31268 19.048 9.32086 19.9477 9.36175C20.7798 9.39979 21.2313 9.53882 21.5321 9.65562C21.9303 9.81029 22.2143 9.99518 22.5128 10.2938C22.8114 10.5925 22.9963 10.877 23.1513 11.2752C23.2681 11.5756 23.4073 12.0272 23.4452 12.8592C23.4861 13.7588 23.495 14.029 23.495 16.3064C23.495 18.5837 23.4861 18.8539 23.4452 19.7535C23.4072 20.5855 23.2681 21.0371 23.1513 21.3375C22.9967 21.7357 22.8114 22.0193 22.5128 22.3178C22.2141 22.6165 21.9305 22.8014 21.5321 22.956C21.2317 23.0734 20.7798 23.212 19.9477 23.2501C19.0482 23.291 18.778 23.2998 16.4995 23.2998C14.2209 23.2998 13.9509 23.291 13.0513 23.2501C12.2193 23.2117 11.7678 23.0726 11.4668 22.9558C11.0685 22.8012 10.7841 22.6163 10.4854 22.3176C10.1868 22.0189 10.0019 21.7352 9.84684 21.3368C9.73004 21.0364 9.59084 20.5848 9.55297 19.7528C9.51208 18.8532 9.50391 18.583 9.50391 16.3042C9.50391 14.0254 9.51208 13.7566 9.55297 12.8571C9.59102 12.0251 9.73004 11.5735 9.84684 11.2727C10.0015 10.8745 10.1868 10.59 10.4854 10.2914C10.7841 9.99269 11.0685 9.8078 11.4668 9.65277C11.7676 9.53544 12.2193 9.39677 13.0513 9.35855C13.8385 9.32299 14.1436 9.31232 15.734 9.31055V9.31268ZM21.0553 10.7298C20.4899 10.7298 20.0312 11.188 20.0312 11.7535C20.0312 12.3188 20.4899 12.7775 21.0553 12.7775C21.6206 12.7775 22.0793 12.3188 22.0793 11.7535C22.0793 11.1882 21.6206 10.7295 21.0553 10.7295V10.7298ZM12.1172 16.308C12.1172 13.888 14.0792 11.9259 16.4993 11.9258C18.9194 11.9258 20.881 13.8879 20.881 16.308C20.881 18.7282 18.9196 20.6894 16.4995 20.6894C14.0793 20.6894 12.1172 18.7282 12.1172 16.308Z" fill="#0997D9"/>
<path d="M16.5007 13.4639C18.0716 13.4639 19.3452 14.7373 19.3452 16.3083C19.3452 17.8792 18.0716 19.1528 16.5007 19.1528C14.9297 19.1528 13.6562 17.8792 13.6562 16.3083C13.6562 14.7373 14.9297 13.4639 16.5007 13.4639Z" fill="#0997D9"/>
</svg>
