<svg width="33" height="33" viewBox="0 0 33 33" fill="none" xmlns="http://www.w3.org/2000/svg">
<path fill-rule="evenodd" clip-rule="evenodd" d="M0.5 16.3086C0.5 25.1452 7.66344 32.3086 16.5 32.3086C25.3366 32.3086 32.5 25.1452 32.5 16.3086C32.5 7.47204 25.3366 0.308594 16.5 0.308594C7.66344 0.308594 0.5 7.47204 0.5 16.3086ZM13.5676 23.6419L13.8398 19.5634L13.8396 19.5632L21.2589 12.8679C21.5845 12.5789 21.1878 12.438 20.7555 12.7001L11.5991 18.4768L7.64406 17.2424C6.78994 16.9808 6.7838 16.3939 7.83582 15.972L23.2478 10.0292C23.9517 9.70958 24.6311 10.1982 24.3624 11.2756L21.7377 23.644C21.5545 24.5229 21.0234 24.7331 20.2876 24.3271L16.2894 21.3732L14.3676 23.2419C14.3615 23.2478 14.3555 23.2537 14.3495 23.2595C14.1346 23.4688 13.9567 23.6419 13.5676 23.6419Z" fill="#0997D9"/>
</svg>
