<svg width="33" height="33" viewBox="0 0 33 33" fill="none" xmlns="http://www.w3.org/2000/svg">
<path fill-rule="evenodd" clip-rule="evenodd" d="M16.5 0.308594C7.66344 0.308594 0.5 7.47204 0.5 16.3086C0.5 25.1452 7.66344 32.3086 16.5 32.3086C25.3366 32.3086 32.5 25.1452 32.5 16.3086C32.5 7.47204 25.3366 0.308594 16.5 0.308594ZM23.1679 10.8086C23.9022 11.0101 24.4805 11.6039 24.6768 12.3579C25.0335 13.7244 25.0335 16.5757 25.0335 16.5757C25.0335 16.5757 25.0335 19.4269 24.6768 20.7936C24.4805 21.5476 23.9022 22.1413 23.1679 22.3429C21.8371 22.709 16.5001 22.709 16.5001 22.709C16.5001 22.709 11.1632 22.709 9.8323 22.3429C9.09795 22.1413 8.51962 21.5476 8.32335 20.7936C7.9668 19.4269 7.9668 16.5757 7.9668 16.5757C7.9668 16.5757 7.9668 13.7244 8.32335 12.3579C8.51962 11.6039 9.09795 11.0101 9.8323 10.8086C11.1632 10.4424 16.5001 10.4424 16.5001 10.4424C16.5001 10.4424 21.8371 10.4424 23.1679 10.8086Z" fill="#0997D9"/>
<path d="M14.9004 19.5081V14.1748L19.1671 16.8416L14.9004 19.5081Z" fill="#0997D9"/>
</svg>
